<?xml version="1.0" encoding="UTF-8"?>
<svg xmlns="http://www.w3.org/2000/svg" xmlns:xlink="http://www.w3.org/1999/xlink" viewBox="0 0 128 128" width="128px" height="128px">
<g id="surface205200229">
<path style=" stroke:none;fill-rule:nonzero;fill:rgb(100%,100%,100%);fill-opacity:1;" d="M 28.707031 12 C 22.84375 12 18 16.699219 18 22.5 L 18 107.5 C 18 113.300781 22.84375 118 28.707031 118 L 85.292969 118 C 91.15625 118 96 113.300781 96 107.5 L 96 22.5 C 96 16.699219 91.15625 12 85.292969 12 Z M 28.707031 16 L 85.292969 16 C 89.046875 16 92 18.914062 92 22.5 L 92 107.5 C 92 111.085938 89.046875 114 85.292969 114 L 28.707031 114 C 24.953125 114 22 111.085938 22 107.5 L 22 22.5 C 22 18.914062 24.953125 16 28.707031 16 Z M 32.460938 20 C 29.027344 20 26 22.585938 26 26 L 26 38 C 26 41.414062 29.027344 44 32.460938 44 L 81.539062 44 C 84.96875 44 88 41.414062 88 38 L 88 26 C 88 22.585938 84.972656 20 81.539062 20 Z M 32.460938 24 L 81.539062 24 C 83.035156 24 84 24.996094 84 26 L 84 38 C 84 39.003906 83.03125 40 81.539062 40 L 32.460938 40 C 30.964844 40 30 39.003906 30 38 L 30 26 C 30 24.996094 30.964844 24 32.460938 24 Z M 104 24 C 102.894531 24 102 24.894531 102 26 C 102 27.105469 102.894531 28 104 28 L 108 28 C 109.105469 28 110 27.105469 110 26 C 110 24.894531 109.105469 24 108 24 Z M 104 34 C 102.894531 34 102 34.894531 102 36 C 102 37.105469 102.894531 38 104 38 L 108 38 C 109.105469 38 110 37.105469 110 36 C 110 34.894531 109.105469 34 108 34 Z M 104 44 C 102.894531 44 102 44.894531 102 46 C 102 47.105469 102.894531 48 104 48 L 108 48 C 109.105469 48 110 47.105469 110 46 C 110 44.894531 109.105469 44 108 44 Z M 35 48 C 32.167969 48 29.789062 49.132812 28.253906 50.859375 C 26.71875 52.585938 26 54.804688 26 57 C 26 59.195312 26.71875 61.414062 28.253906 63.140625 C 29.789062 64.867188 32.167969 66 35 66 C 37.832031 66 40.210938 64.867188 41.746094 63.140625 C 43.28125 61.414062 44 59.195312 44 57 C 44 54.804688 43.28125 52.585938 41.746094 50.859375 C 40.210938 49.132812 37.832031 48 35 48 Z M 57 48 C 54.167969 48 51.789062 49.132812 50.253906 50.859375 C 48.71875 52.585938 48 54.804688 48 57 C 48 59.195312 48.71875 61.414062 50.253906 63.140625 C 51.789062 64.867188 54.167969 66 57 66 C 59.832031 66 62.210938 64.867188 63.746094 63.140625 C 65.28125 61.414062 66 59.195312 66 57 C 66 54.804688 65.28125 52.585938 63.746094 50.859375 C 62.210938 49.132812 59.832031 48 57 48 Z M 79 48 C 76.167969 48 73.789062 49.132812 72.253906 50.859375 C 70.71875 52.585938 70 54.804688 70 57 C 70 59.195312 70.71875 61.414062 72.253906 63.140625 C 73.789062 64.867188 76.167969 66 79 66 C 81.832031 66 84.210938 64.867188 85.746094 63.140625 C 87.28125 61.414062 88 59.195312 88 57 C 88 54.804688 87.28125 52.585938 85.746094 50.859375 C 84.210938 49.132812 81.832031 48 79 48 Z M 35 52 C 36.832031 52 37.953125 52.617188 38.753906 53.515625 C 39.554688 54.414062 40 55.695312 40 57 C 40 58.304688 39.554688 59.585938 38.753906 60.484375 C 37.953125 61.382812 36.832031 62 35 62 C 33.167969 62 32.046875 61.382812 31.246094 60.484375 C 30.445312 59.585938 30 58.304688 30 57 C 30 55.695312 30.445312 54.414062 31.246094 53.515625 C 32.046875 52.617188 33.167969 52 35 52 Z M 57 52 C 58.832031 52 59.953125 52.617188 60.753906 53.515625 C 61.554688 54.414062 62 55.695312 62 57 C 62 58.304688 61.554688 59.585938 60.753906 60.484375 C 59.953125 61.382812 58.832031 62 57 62 C 55.167969 62 54.046875 61.382812 53.246094 60.484375 C 52.445312 59.585938 52 58.304688 52 57 C 52 55.695312 52.445312 54.414062 53.246094 53.515625 C 54.046875 52.617188 55.167969 52 57 52 Z M 79 52 C 80.832031 52 81.953125 52.617188 82.753906 53.515625 C 83.554688 54.414062 84 55.695312 84 57 C 84 58.304688 83.554688 59.585938 82.753906 60.484375 C 81.953125 61.382812 80.832031 62 79 62 C 77.167969 62 76.046875 61.382812 75.246094 60.484375 C 74.445312 59.585938 74 58.304688 74 57 C 74 55.695312 74.445312 54.414062 75.246094 53.515625 C 76.046875 52.617188 77.167969 52 79 52 Z M 104 54 C 102.894531 54 102 54.894531 102 56 C 102 57.105469 102.894531 58 104 58 L 108 58 C 109.105469 58 110 57.105469 110 56 C 110 54.894531 109.105469 54 108 54 Z M 104 64 C 102.894531 64 102 64.894531 102 66 C 102 67.105469 102.894531 68 104 68 L 108 68 C 109.105469 68 110 67.105469 110 66 C 110 64.894531 109.105469 64 108 64 Z M 35 70 C 32.167969 70 29.789062 71.132812 28.253906 72.859375 C 26.71875 74.585938 26 76.804688 26 79 C 26 81.195312 26.71875 83.414062 28.253906 85.140625 C 29.789062 86.867188 32.167969 88 35 88 C 37.832031 88 40.210938 86.867188 41.746094 85.140625 C 43.28125 83.414062 44 81.195312 44 79 C 44 76.804688 43.28125 74.585938 41.746094 72.859375 C 40.210938 71.132812 37.832031 70 35 70 Z M 57 70 C 54.167969 70 51.789062 71.132812 50.253906 72.859375 C 48.71875 74.585938 48 76.804688 48 79 C 48 81.195312 48.71875 83.414062 50.253906 85.140625 C 51.789062 86.867188 54.167969 88 57 88 C 59.832031 88 62.210938 86.867188 63.746094 85.140625 C 65.28125 83.414062 66 81.195312 66 79 C 66 76.804688 65.28125 74.585938 63.746094 72.859375 C 62.210938 71.132812 59.832031 70 57 70 Z M 79 70 C 76.167969 70 73.789062 71.132812 72.253906 72.859375 C 70.71875 74.585938 70 76.804688 70 79 C 70 81.195312 70.71875 83.414062 72.253906 85.140625 C 73.789062 86.867188 76.167969 88 79 88 C 81.832031 88 84.210938 86.867188 85.746094 85.140625 C 87.28125 83.414062 88 81.195312 88 79 C 88 76.804688 87.28125 74.585938 85.746094 72.859375 C 84.210938 71.132812 81.832031 70 79 70 Z M 35 74 C 36.832031 74 37.953125 74.617188 38.753906 75.515625 C 39.554688 76.414062 40 77.695312 40 79 C 40 80.304688 39.554688 81.585938 38.753906 82.484375 C 37.953125 83.382812 36.832031 84 35 84 C 33.167969 84 32.046875 83.382812 31.246094 82.484375 C 30.445312 81.585938 30 80.304688 30 79 C 30 77.695312 30.445312 76.414062 31.246094 75.515625 C 32.046875 74.617188 33.167969 74 35 74 Z M 57 74 C 58.832031 74 59.953125 74.617188 60.753906 75.515625 C 61.554688 76.414062 62 77.695312 62 79 C 62 80.304688 61.554688 81.585938 60.753906 82.484375 C 59.953125 83.382812 58.832031 84 57 84 C 55.167969 84 54.046875 83.382812 53.246094 82.484375 C 52.445312 81.585938 52 80.304688 52 79 C 52 77.695312 52.445312 76.414062 53.246094 75.515625 C 54.046875 74.617188 55.167969 74 57 74 Z M 79 74 C 80.832031 74 81.953125 74.617188 82.753906 75.515625 C 83.554688 76.414062 84 77.695312 84 79 C 84 80.304688 83.554688 81.585938 82.753906 82.484375 C 81.953125 83.382812 80.832031 84 79 84 C 77.167969 84 76.046875 83.382812 75.246094 82.484375 C 74.445312 81.585938 74 80.304688 74 79 C 74 77.695312 74.445312 76.414062 75.246094 75.515625 C 76.046875 74.617188 77.167969 74 79 74 Z M 104 74 C 102.894531 74 102 74.894531 102 76 C 102 77.105469 102.894531 78 104 78 L 108 78 C 109.105469 78 110 77.105469 110 76 C 110 74.894531 109.105469 74 108 74 Z M 104 84 C 102.894531 84 102 84.894531 102 86 C 102 87.105469 102.894531 88 104 88 L 108 88 C 109.105469 88 110 87.105469 110 86 C 110 84.894531 109.105469 84 108 84 Z M 35 92 C 30.054688 92 26 96.054688 26 101 C 26 105.945312 30.054688 110 35 110 L 57 110 C 61.945312 110 66 105.945312 66 101 C 66 96.054688 61.945312 92 57 92 Z M 79 92 C 76.167969 92 73.789062 93.132812 72.253906 94.859375 C 70.71875 96.585938 70 98.804688 70 101 C 70 103.195312 70.71875 105.414062 72.253906 107.140625 C 73.789062 108.867188 76.167969 110 79 110 C 81.832031 110 84.210938 108.867188 85.746094 107.140625 C 87.28125 105.414062 88 103.195312 88 101 C 88 98.804688 87.28125 96.585938 85.746094 94.859375 C 84.210938 93.132812 81.832031 92 79 92 Z M 104 94 C 102.894531 94 102 94.894531 102 96 C 102 97.105469 102.894531 98 104 98 L 108 98 C 109.105469 98 110 97.105469 110 96 C 110 94.894531 109.105469 94 108 94 Z M 35 96 L 57 96 C 59.785156 96 62 98.214844 62 101 C 62 103.785156 59.785156 106 57 106 L 35 106 C 32.214844 106 30 103.785156 30 101 C 30 98.214844 32.214844 96 35 96 Z M 79 96 C 80.832031 96 81.953125 96.617188 82.753906 97.515625 C 83.554688 98.414062 84 99.695312 84 101 C 84 102.304688 83.554688 103.585938 82.753906 104.484375 C 81.953125 105.382812 80.832031 106 79 106 C 77.167969 106 76.046875 105.382812 75.246094 104.484375 C 74.445312 103.585938 74 102.304688 74 101 C 74 99.695312 74.445312 98.414062 75.246094 97.515625 C 76.046875 96.617188 77.167969 96 79 96 Z M 104 104 C 102.894531 104 102 104.894531 102 106 C 102 107.105469 102.894531 108 104 108 L 108 108 C 109.105469 108 110 107.105469 110 106 C 110 104.894531 109.105469 104 108 104 Z M 104 104 "/>
</g>
</svg>
