<?xml version="1.0" encoding="utf-8"?>
<!-- Generator: Adobe Illustrator 25.2.3, SVG Export Plug-In . SVG Version: 6.00 Build 0)  -->
<svg version="1.1" id="Layer_1" xmlns="http://www.w3.org/2000/svg" xmlns:xlink="http://www.w3.org/1999/xlink" x="0px" y="0px"
	 viewBox="0 0 2500 1495" style="enable-background:new 0 0 2500 1495;" xml:space="preserve">
<style type="text/css">
	.st0{fill:#FFFFFF;}
</style>
<path class="st0" d="M704.2,543c0,30.8,3.3,55.7,9.1,74c6.7,18.3,15,38.2,26.6,59.9c4.2,6.7,5.8,13.3,5.8,19.1
	c0,8.3-5,16.6-15.8,24.9l-52.4,34.9c-7.5,5-15,7.5-21.6,7.5c-8.3,0-16.6-4.2-24.9-11.6c-11.6-12.5-21.6-25.8-29.9-39.1
	c-8.3-14.1-16.6-29.9-25.8-49.1C510.5,740,429,778.3,330.9,778.3c-69.8,0-125.5-20-166.3-59.9c-40.7-39.9-61.5-93.1-61.5-159.6
	c0-70.7,24.9-128,75.7-171.3s118.1-64.8,203.7-64.8c28.3,0,57.4,2.5,88.1,6.7c30.8,4.2,62.4,10.8,95.6,18.3v-60.7
	c0-63.2-13.3-107.2-39.1-133c-26.6-25.8-71.5-38.2-135.5-38.2c-29.1,0-59,3.3-89.8,10.8c-30.8,7.5-60.7,16.6-89.8,28.3
	c-13.3,5.8-23.3,9.1-29.1,10.8c-5.8,1.7-10,2.5-13.3,2.5c-11.6,0-17.5-8.3-17.5-25.8v-40.7c0-13.3,1.7-23.3,5.8-29.1
	c4.2-5.8,11.6-11.6,23.3-17.5c29.1-15,64-27.4,104.8-37.4C326.7,6.7,370,1.7,415.7,1.7c98.9,0,171.3,22.4,217.8,67.3
	c45.7,44.9,69,113.1,69,204.5V543H704.2z M366.6,669.3c27.4,0,55.7-5,85.6-15c29.9-10,56.5-28.3,79-53.2
	c13.3-15.8,23.3-33.3,28.3-53.2c5-20,8.3-44.1,8.3-72.3v-34.9c-24.1-5.8-49.9-10.8-76.5-14.1c-26.6-3.3-52.4-5-78.2-5
	c-55.7,0-96.4,10.8-123.9,33.3c-27.4,22.4-40.7,54-40.7,95.6c0,39.1,10,68.2,30.8,88.1C299.3,659.4,328.4,669.3,366.6,669.3
	L366.6,669.3z M1034.3,759.1c-15,0-24.9-2.5-31.6-8.3c-6.7-5-12.5-16.6-17.5-32.4L789.8,75.7c-5-16.6-7.5-27.4-7.5-33.3
	c0-13.3,6.7-20.8,20-20.8h81.5c15.8,0,26.6,2.5,32.4,8.3c6.7,5,11.6,16.6,16.6,32.4l139.7,550.4l129.7-550.4
	c4.2-16.6,9.1-27.4,15.8-32.4c6.7-5,18.3-8.3,33.3-8.3h66.5c15.8,0,26.6,2.5,33.3,8.3c6.7,5,12.5,16.6,15.8,32.4l131.4,557
	l143.8-557c5-16.6,10.8-27.4,16.6-32.4c6.7-5,17.5-8.3,32.4-8.3h77.3c13.3,0,20.8,6.7,20.8,20.8c0,4.2-0.8,8.3-1.7,13.3
	c-0.8,5-2.5,11.6-5.8,20.8l-200.4,642.7c-5,16.6-10.8,27.4-17.5,32.4c-6.7,5-17.5,8.3-31.6,8.3h-71.5c-15.8,0-26.6-2.5-33.3-8.3
	s-12.5-16.6-15.8-33.3l-128.9-536.2l-128,535.4c-4.2,16.6-9.1,27.4-15.8,33.3c-6.7,5.8-18.3,8.3-33.3,8.3H1034.3z M2102.6,781.6
	c-43.2,0-86.5-5-128-15c-41.6-10-74-20.8-95.6-33.3c-13.3-7.5-22.4-15.8-25.8-23.3c-3.3-7.5-5-15.8-5-23.3v-42.4
	c0-17.5,6.7-25.8,19.1-25.8c5,0,10,0.8,15,2.5s12.5,5,20.8,8.3c28.3,12.5,59,22.4,91.5,29.1c33.3,6.7,65.7,10,98.9,10
	c52.4,0,93.1-9.1,121.4-27.4s43.2-44.9,43.2-79c0-23.3-7.5-42.4-22.4-58.2c-15-15.8-43.2-29.9-84-43.2l-120.6-37.4
	c-60.7-19.1-105.6-47.4-133-84.8c-27.4-36.6-41.6-77.3-41.6-120.6c0-34.9,7.5-65.7,22.4-92.3s34.9-49.9,59.9-68.2
	c24.9-19.1,53.2-33.3,86.5-43.2S2093.4,0.1,2130,0.1c18.3,0,37.4,0.8,55.7,3.3c19.1,2.5,36.6,5.8,54,9.1
	c16.6,4.2,32.4,8.3,47.4,13.3c15,5,26.6,10,34.9,15c11.6,6.7,20,13.3,24.9,20.8c5,6.7,7.5,15.8,7.5,27.4v39.1
	c0,17.5-6.7,26.6-19.1,26.6c-6.7,0-17.5-3.3-31.6-10c-47.4-21.6-100.6-32.4-159.6-32.4c-47.4,0-84.8,7.5-110.6,23.3
	s-39.1,39.9-39.1,74c0,23.3,8.3,43.2,24.9,59c16.6,15.8,47.4,31.6,91.5,45.7l118.1,37.4c59.9,19.1,103.1,45.7,128.9,79.8
	c25.8,34.1,38.2,73.2,38.2,116.4c0,35.7-7.5,68.2-21.6,96.4c-15,28.3-34.9,53.2-60.7,73.2c-25.8,20.8-56.5,35.7-92.3,46.6
	C2184.1,775.8,2145,781.6,2102.6,781.6L2102.6,781.6z"/>
<path class="st0" d="M2259.7,1185.6c-273.5,202-670.9,309.3-1012.6,309.3c-478.9,0-910.4-177.1-1236.3-471.4
	c-25.8-23.3-2.5-54.9,28.3-36.6c352.5,204.5,787.3,328.4,1237.1,328.4c303.5,0,636.8-63.2,943.6-192.9
	C2265.5,1101.7,2304.6,1152.4,2259.7,1185.6L2259.7,1185.6z"/>
<path class="st0" d="M2373.6,1055.9c-34.9-44.9-231.1-21.6-320.1-10.8c-26.6,3.3-30.8-20-6.7-37.4
	c156.3-109.7,413.2-78.2,443.1-41.6c29.9,37.4-8.3,294.3-154.6,417.4c-22.4,19.1-44.1,9.1-34.1-15.8
	C2334.6,1285.4,2408.5,1100,2373.6,1055.9z"/>
</svg>
