<svg width="76" height="73" viewBox="0 0 76 73" fill="none" xmlns="http://www.w3.org/2000/svg">
<path d="M38.3809 0.391541C37.2566 0.391541 36.1323 1.51588 36.1323 2.64022C36.1323 2.86509 36.1323 3.08995 36.1323 3.08995C36.1323 3.76456 36.3571 4.43916 36.3571 5.11376C36.582 6.68784 36.582 7.81217 36.582 8.93651C36.582 9.38625 36.1323 9.83598 35.9074 10.0609V10.9603C34.5582 10.9603 33.209 11.1852 32.0847 11.6349C26.463 12.9841 21.5159 15.6825 17.918 19.5053C17.6931 19.2804 17.2434 19.0556 17.2434 19.0556C16.7936 19.0556 16.5688 19.2804 15.8942 18.8307C14.9947 18.1561 14.0952 17.4815 12.9709 16.3571C12.5212 15.9074 12.0714 15.2328 11.6217 14.7831C11.3968 14.7831 11.172 14.5582 10.9471 14.5582C10.4974 14.1085 10.0476 13.8836 9.59788 13.8836C8.92328 13.8836 8.24868 14.1085 7.79894 14.7831C7.12434 15.6825 7.3492 17.0318 8.24868 17.9312C8.47354 18.1561 8.47354 18.1561 8.69841 18.381C9.37301 18.8307 9.82275 19.0556 10.4974 19.5053C11.8466 20.1799 12.9709 20.8545 13.6455 21.754C13.8704 22.2037 14.0952 22.6534 14.0952 22.8783L14.9947 23.1032C11.172 28.5 9.59788 35.246 10.4974 41.9921L9.59788 42.2169C9.37301 42.6667 9.14815 43.1164 8.69841 43.3413C7.57407 43.791 6.22487 43.791 4.87566 44.0159C4.20106 44.0159 3.52645 44.0159 2.85185 44.2407C2.62698 44.2407 2.40212 44.2407 2.17725 44.4656C0.828041 44.6905 0.153438 45.8148 0.378306 46.9392C0.603174 48.0635 1.95238 48.7381 3.07672 48.5132C3.30159 48.5132 3.52645 48.5132 3.52645 48.2884C4.20106 48.0635 4.87566 47.8386 5.55026 47.6138C6.89947 47.164 8.24868 46.7143 9.37301 46.4894C9.82275 46.4894 10.2725 46.7143 10.7222 46.9392L11.6217 46.7143C13.8704 53.2355 18.3677 58.6323 24.2143 61.7804L23.7645 62.6799C23.9894 63.1296 23.9894 63.5794 23.9894 63.8042C23.5397 64.9286 22.8651 66.0529 21.9656 67.1773C21.5159 67.8519 21.0661 68.3016 20.8413 68.7513C20.8413 68.9762 20.6164 69.2011 20.6164 69.4259C20.1667 70.5503 20.3915 71.8995 21.5159 72.3492C22.6402 72.799 23.9894 72.3492 24.4391 71.2249C24.4391 71 24.664 70.7751 24.664 70.7751C24.8889 70.1005 25.1138 69.4259 25.3386 68.7513C26.0132 67.4021 26.2381 65.828 26.9127 64.9286C27.1376 64.7037 27.5873 64.4788 27.8122 64.4788L28.2619 63.5794C33.209 65.3783 38.8307 66.0529 44.4524 64.7037C45.8016 64.4788 46.9259 64.0291 48.2751 63.5794C48.5 63.8042 48.7249 64.254 48.7249 64.4788C49.1746 64.7037 49.3995 64.7037 49.8492 65.1535C50.5238 66.0529 50.7487 67.4021 51.4233 68.7513C51.6481 69.4259 51.6481 70.1005 52.0979 70.7751C52.0979 71 52.3227 71.2249 52.3227 71.2249C52.9973 72.3492 54.3466 73.0238 55.246 72.3492C56.3704 71.8995 56.8201 70.5503 56.1455 69.4259C56.1455 69.2011 55.9206 68.9762 55.9206 68.7513C55.4709 68.0767 55.246 67.627 54.7963 67.1773C53.8968 65.828 53.2222 64.9286 52.7725 63.8042C52.5476 63.3545 52.7725 62.9048 52.9973 62.455C52.9973 62.455 52.7725 61.7804 52.5476 61.5556C58.619 58.1825 62.8915 52.5609 64.9153 46.2646C65.1402 46.2646 65.5899 46.4894 65.8148 46.4894C66.0397 46.2646 66.4894 46.0397 66.9391 46.0397C68.0635 46.2646 69.1878 46.7143 70.7619 47.164C71.4365 47.3889 71.8862 47.6138 72.7857 47.8386C73.0106 47.8386 73.2354 47.8386 73.2354 48.0635C74.5846 48.2884 75.709 47.6138 75.9339 46.4894C76.1587 45.3651 75.4841 44.2407 74.1349 44.0159C73.91 44.0159 73.6852 44.0159 73.4603 43.791C72.7857 43.5661 72.1111 43.791 71.4365 43.5661C69.8624 43.3413 68.7381 43.3413 67.6137 42.8915C67.164 42.6667 66.9391 42.2169 66.7143 41.9921L65.8148 41.7672C66.2645 38.6191 66.0397 35.246 65.3651 31.873C64.4656 28.5 63.1164 25.3519 61.3175 22.6534C61.5423 22.4286 61.9921 21.9788 61.9921 21.9788C61.9921 21.5291 61.9921 21.3042 62.4418 20.8545C63.3413 20.1799 64.4656 19.5053 65.5899 18.6058C66.2645 18.1561 66.7143 17.9312 67.3889 17.4815C67.6137 17.4815 67.6137 17.2566 67.8386 17.0318C68.963 16.1323 69.1878 14.7831 68.2883 13.8836C67.6137 12.9841 66.0397 12.9841 65.1402 13.6587C64.9153 13.8836 64.6905 13.8836 64.6905 14.1085C64.0159 14.5582 63.791 15.0079 63.3413 15.6825C62.2169 16.8069 61.3174 17.7064 60.418 18.1561C59.9682 18.381 59.2936 18.381 59.0688 18.381L58.619 19.5053C53.8968 14.7831 47.6005 11.6349 40.6296 10.9603C40.6296 10.7355 40.6296 10.0609 40.6296 10.0609C40.4048 9.83598 39.955 9.61112 39.955 8.93651C39.955 7.81217 39.955 6.68784 40.1799 5.11376C40.1799 4.43916 40.4048 3.76456 40.4048 3.08995C40.4048 2.86509 40.4048 2.64022 40.4048 2.41535C40.6296 1.51588 39.5053 0.391541 38.3809 0.391541ZM35.6825 16.8069L35.0079 27.8254C35.0079 28.7249 34.1085 29.6243 33.209 29.6243C32.7593 29.6243 32.3095 29.3995 32.0847 29.1746L22.6402 22.8783C25.5635 20.1799 29.1614 18.1561 33.4339 17.2566C34.1085 16.8069 35.0079 16.8069 35.6825 16.8069ZM41.0794 16.8069C46.0264 17.4815 50.5238 19.5053 54.1217 22.8783L44.9021 29.1746C44.0026 29.8492 42.8783 29.6243 42.2037 28.7249C41.9788 28.5 41.754 28.0503 41.754 27.6005L41.0794 16.8069ZM19.2672 26.9259L27.8122 34.3466C28.4868 35.0212 28.7116 36.1455 28.037 36.8201C27.8122 37.045 27.3624 37.2698 27.1376 37.4947L16.3439 40.6429C15.4444 35.6958 16.7936 30.9736 19.2672 26.9259ZM57.4947 26.9259C58.8439 28.9497 59.7434 31.1984 60.1931 33.4471C60.8677 35.9206 60.8677 38.1693 60.6428 40.418L49.6243 37.2698C48.7249 37.045 48.0503 36.1455 48.2751 35.0212C48.2751 34.5714 48.5 34.3466 48.9497 34.1217L57.4947 26.9259ZM36.582 34.7963H39.955L42.2037 37.4947L41.5291 40.8677L38.3809 42.2169L35.2328 40.6429L34.5582 37.2698L36.582 34.7963ZM47.8254 43.791C48.0503 43.791 48.0503 43.791 48.2751 43.791L59.5185 45.59C57.9444 50.0873 54.7963 53.9101 50.5238 56.6085L46.2513 46.2646C45.8016 45.3651 46.2513 44.2407 47.1508 43.791C47.3757 44.0159 47.6005 43.791 47.8254 43.791ZM28.9365 44.0159C29.836 44.0159 30.5106 44.6905 30.7354 45.3651C30.7354 45.8148 30.7354 46.2646 30.7354 46.4894L26.463 56.6085C22.4153 54.1349 19.2672 50.3122 17.4683 45.59L28.7116 43.791C28.7116 44.0159 28.7116 44.0159 28.9365 44.0159ZM38.3809 48.2884C38.6058 48.2884 39.0555 48.2884 39.2804 48.5132C39.7302 48.7381 39.955 48.963 40.1799 49.4127L45.5767 59.082C44.9021 59.3069 44.2275 59.5317 43.328 59.7566C39.0555 60.6561 35.0079 60.4312 31.1852 59.082L36.582 49.4127C37.0317 48.7381 37.7063 48.2884 38.3809 48.2884Z" fill="white"/>
</svg>
