<?xml version="1.0" encoding="utf-8"?>
<!-- Generator: Adobe Illustrator 22.1.0, SVG Export Plug-In . SVG Version: 6.00 Build 0)  -->
<svg version="1.1" id="Vrstva_1" xmlns="http://www.w3.org/2000/svg" xmlns:xlink="http://www.w3.org/1999/xlink" x="0px" y="0px"
	 viewBox="0 0 1244 287" style="enable-background:new 0 0 1244 287;" xml:space="preserve">
<style type="text/css">
	.st0{fill:#FFFFFF;}
	.st1{fill:#F39314;}
</style>
<g>
	<path class="st0" d="M447.52499,143.642c0-16.372-11.41299-23.367-34.21201-23.367c-4.79599,0-16.20898,0.438-20.31,0.877V170.295
		c3.64301,0.213,16.431,0.65199,20.31,0.65199c23.48001,0,34.21201-6.118,34.21201-25.336V143.642z M481.737,258.29999h-27.83099
		c-2.50299,0-3.42001-2.181-4.573-4.362l-32.836-58.32001h-3.18399c-5.936,0-15.069-0.65199-20.31-0.86501v59.185
		c0,2.394-1.82101,4.36201-4.33701,4.36201H365.854c-2.50299,0-4.56-1.96799-4.56-4.362V103.69c0-4.376,2.73801-5.905,7.298-6.557
		c11.858-1.756,28.05399-2.833,44.72-2.833c35.117,0,65.686,12.01,65.686,49.342v1.96899c0,23.155-12.07999,37.558-30.79199,44.554
		l35.81,63.77299c0.44601,0.651,0.44601,1.30299,0.44601,1.742c0,1.53-0.90399,2.62-2.72501,2.62H481.737z M594.79999,252.69099
		h-21.26001c-2.53497,0-4.61902-1.94099-4.61902-4.30299v-4.95801c-12.01001,7.32001-21.487,10.77-36.27197,10.77
		c-11.56,0-21.72601-2.80701-28.41501-9.052c-8.56-7.963-11.56-21.31801-11.56-39.198v-70.224c0-2.375,2.08401-4.526,4.63199-4.526
		h21.24799c2.53497,0,4.62,2.151,4.62,4.526v70.224c0,10.77,0.92798,17.015,5.30798,20.675
		c3.23798,2.584,7.16699,3.883,14.32001,3.883c8.56,0,19.65601-5.392,26.12-8.62v-86.162c0-2.375,2.08301-4.526,4.61798-4.526
		h21.26007c2.534,0,4.61798,2.151,4.61798,4.526v112.662C599.41797,250.75,597.33398,252.69099,594.79999,252.69099
		 M717.96899,254.2h-21.26202c-2.53497,0-4.61798-2.151-4.61798-4.526V179.45c0-18.746-1.84497-24.125-19.64301-24.125
		c-7.85699,0-16.40399,3.017-26.10602,7.75301v86.59601c0,2.375-2.08301,4.526-4.61798,4.526h-21.26196
		c-2.53497,0-4.61798-2.151-4.61798-4.526V137.01199c0-2.362,2.08301-4.30299,4.61798-4.30299h20.10699
		c2.53497,0,4.61902,1.94099,4.61902,4.30299v4.52499c13.39099-7.963,22.177-10.33701,37.427-10.33701
		c33.27197,0,39.974,20.89799,39.974,48.25v70.224c0,2.375-2.08301,4.526-4.61798,4.526 M814.91998,183.233
		c0-17.12601-9.97803-27.006-24.34998-27.006c-14.38599,0-24.81598,9.65199-24.81598,27.006v0.869h49.16498v-0.87L814.91998,183.233
		z M841.12,204.743h-75.60602v0.655c0,12.741,5.56799,27.888,27.84003,27.888c16.91699,0,32.914-1.323,42.66498-2.205h0.69202
		c2.31799,0,4.16998,1.09599,4.16998,3.302v14.478c0,3.51601-0.69299,5.054-4.862,5.709
		c-15.07898,2.63399-24.12299,3.73-44.98297,3.73c-23.20398,0-56.13202-11.845-56.13202-55.09399v-16.243
		c0-34.252,20.17999-55.763,55.66602-55.763c35.698,0,55.18597,23.048,55.18597,55.763v12.286
		C845.75598,202.765,844.35699,204.743,841.12,204.743z"/>
	<path class="st1" d="M939.508,255.452c-5.25403,1.31-15.51398,2.84799-29.42999,2.84799c-29.65198,0-52.005-17.554-52.005-53.343
		v-20.414c0-35.776,22.35303-53.343,52.005-53.343c13.91602,0,24.17603,1.537,29.42999,2.86099
		c3.87799,0.869,4.78198,2.17999,4.78198,5.69501v14.278c0,2.19299-1.82001,3.28999-4.09998,3.28999H939.508
		c-9.12-1.097-14.59698-1.53799-29.42999-1.53799c-10.71802,0-21.89502,5.936-21.89502,28.757v20.414
		c0,22.83501,11.177,28.757,21.89502,28.757c14.83301,0,20.31-0.42799,29.42999-1.537h0.68103c2.28003,0,4.10101,1.11,4.10101,3.302
		v14.265c0,3.51601-0.90399,4.826-4.78198,5.70801 M1024.28101,202.11h-14.73199c-21.27197,0-25.95801,6.36301-25.95801,18.66299
		v0.869c0,10.76199,5.14301,13.61,16.84003,13.61c8.41998,0,17.05499-2.634,23.84998-6.13699V202.11z M1050.45496,256.54901
		h-19.86194c-2.578,0-4.68701-1.979-4.68701-4.38499v-3.51601c-10.74298,6.14999-21.742,9.65201-32.95502,9.65201
		c-19.40601,0-40.45001-7.019-40.45001-36.658v-0.87c0-25.026,16.37097-37.98,57.04797-37.98h14.73206v-9.66699
		c0-14.26401-6.79498-17.78-20.573-17.78c-14.974,0-30.40399,0.882-38.11298,1.76401H964.427c-2.33698,0-4.21698-0.668-4.21698-3.73
		v-14.05c0-2.42,1.40997-3.95799,4.44501-4.61301c9.34698-1.765,22.90997-3.51601,39.05298-3.51601
		c33.18298,0,51.43396,13.83701,51.43396,41.925v79.039c0,2.40601-2.10803,4.38501-4.68701,4.38501V256.54901z
		 M1111.40405,258.29999c-9.22998,0-29.11597-1.09601-42.35498-4.38499c-2.84094-0.655-4.51294-2.42-4.51294-5.054l0.01294-13.168
		c0-1.75101,1.65906-3.51601,4.02405-3.51601h0.93799c11.36304,1.323,32.65002,2.42,39.75903,2.42
		c14.66602,0,16.80005-4.61301,16.80005-10.535c0-4.17101-2.83997-6.80499-10.41199-11.19l-32.41895-18.45
		c-11.59399-6.577-19.88599-17.567-19.88599-30.29401c0-21.952,14.91101-32.92799,44.96497-32.92799
		c19.16602,0,30.05396,1.979,42.12402,4.38499c2.84094,0.655,4.255,2.42,4.255,5.054v12.74001
		c0,2.62-1.41394,4.17101-3.78003,4.17101h-0.94995c-6.62-0.882-25.55505-2.647-39.04004-2.647
		c-11.36304,0-16.33801,2.42-16.33801,9.22501c0,3.51601,3.56201,5.709,9.47498,8.99699l31.005,17.567
		c19.87195,11.19,22.71301,22.17999,22.71301,33.37c0,19.09-15.38696,34.23801-46.37805,34.23801 M1239.66296,256.76001
		c-5.47705,0.884-10.495,1.54001-15.51294,1.54001c-25.77197,0-36.26697-5.49001-36.26697-34.946v-69.03401l-21.43604-3.08
		c-2.51501-0.44099-4.56006-1.98-4.56006-4.40401v-9.895c0-2.41,2.04504-4.392,4.56006-4.392h21.43604v-18.022
		c0-2.423,2.05701-3.963,4.56006-4.405l21.21204-3.521h0.91699c2.05701,0,3.65601,1.098,3.65601,3.307v22.641h20.51794
		c2.51599,0,4.56006,1.98199,4.56006,4.392v12.974c0,2.424-2.04395,4.405-4.56006,4.405h-20.51794v69.035
		c0,10.993,0.68103,12.30501,8.88306,12.30501h12.09399c2.974,0,4.79504,1.09801,4.79504,3.29401V252.811
		c0,2.196-1.37598,3.522-4.33704,3.95001 M0,178.591v30.509l78.007-107.76V28.7L0,178.591 M78.007,118.9L0,215.185V246l78.007-54.16
		V118.9 M78.007,213.2L0,255.756V287l78.007-0.05399V213.2"/>
	<path class="st0" d="M90.323,192.56599l156.01401,16.53401v-60.80899L90.323,118.9v73.66601 M90.323,213.2V287h156.01401v-60.909
		L90.323,213.2 M224.213,88.171c0,0,0.34801-21.13,0.34801-21.508L90.323,28.7v70.784L246.33701,131.2V92.717l-22.12399-4.546"/>
	<path class="st1" d="M254.548,82V62.994L234.12399,57.4c0,7.438-0.039,14.556-0.104,20.248L254.548,82 M246.33701,49.2V30.194
		L225.91299,24.6c-0.013,7.438-0.052,14.568-0.104,20.248l20.528,4.352 M275.07599,57.4V41.552l-16.34-4.652
		c0,6.203-0.02701,12.134-0.08301,16.882L275.07599,57.4 M270.58801,28.7V16.031L258.715,12.3
		c-0.01199,4.953-0.02499,9.707-0.06201,13.492l11.935,2.908 M284.56,12.066V2.743L275.125,0c0,3.653-0.01199,7.146-0.04999,9.938
		L284.56,12.066"/>
</g>
</svg>
