<svg xmlns="http://www.w3.org/2000/svg" width="677.99" height="103.4" viewBox="0 0 677.99 103.4">
  <g id="Livello_2" data-name="Livello 2">
    <g id="Livello_1-2" data-name="Livello 1">
      <g>
        <path d="M291.29,95.6l-29.7-82.7a13,13,0,0,1-.9-4,7.18,7.18,0,0,1,7.4-7c3.8,0,6.3,2.5,7.4,6l24.6,71.2,24.8-71.4c1.1-3.4,3.4-5.8,7.2-5.8h.8c4,0,6.4,2.5,7.6,5.8L365.09,79l25-71.6c1-3,3-5.7,7-5.7a7,7,0,0,1,7.2,6.8,17.87,17.87,0,0,1-.9,4l-29.9,82.8c-1.5,4.3-4.5,6.6-8,6.6h-.6c-3.8,0-6.6-2.3-8-6.6l-24.4-70.2-24.6,70.2c-1.3,4.3-4.2,6.6-7.9,6.6h-.4c-3.8.3-6.8-2-8.3-6.3M507.69,9a7.34,7.34,0,0,1,7.2-7.4,7.26,7.26,0,0,1,7.4,7.4V25.8c7.2-16.3,23.1-24,33.7-24,4.4,0,7.2,3.2,7.2,7.4a7.3,7.3,0,0,1-6.5,7.4c-18.9,2.3-34.5,16.5-34.5,44.7V94.5a7.3,7.3,0,1,1-14.6,0ZM610,102.8c-26.4,0-47.9-20.4-47.9-50.4V52c0-27.9,19.5-50.4,46-50.4,28.4,0,44.6,23.4,44.6,49.1a6.79,6.79,0,0,1-6.7,6.8h-69.4c2,21,16.7,32.8,33.8,32.8,11.9,0,20.6-4.7,27.7-11.3a6.38,6.38,0,0,1,4.1-1.7,6.25,6.25,0,0,1,6.3,6.2,6.15,6.15,0,0,1-2.2,4.7c-9.2,8.7-20,14.6-36.3,14.6m28.4-56.1c-1.5-17.6-11.5-33-30.6-33-16.7,0-29.3,14-31.2,33ZM404.19,72.5v-.4c0-20.6,17-31.5,41.7-31.5A102.94,102.94,0,0,1,476,44.8V41.4c0-17.6-10.8-26.6-29.1-26.6-9.8,0-15.5,1.3-22.7,4.5a6.9,6.9,0,0,1-2.6.6,6.41,6.41,0,0,1-6.4-6.2,6.07,6.07,0,0,1,4-6.1c9.6-4.2,16.9-5.6,29.3-5.6,13.8,0,24.4,3.6,31.5,10.8,6.6,6.6,10,16.1,10,28.5V95.2a6.94,6.94,0,0,1-7,7.2,6.65,6.65,0,0,1-6.9-6.8V86.3c-6.8,8.9-18.2,16.8-35.3,16.8-18.2-.2-36.6-10.6-36.6-30.6m72-7.6V55.5a100.91,100.91,0,0,0-28.7-4.2c-18.3,0-28.5,7.9-28.5,20.2v.4c0,12.3,11.3,19.5,24.6,19.5,17.9,0,32.6-11,32.6-26.5M26.69,8.2A13.77,13.77,0,0,0,8.19,1.3a13.56,13.56,0,0,0-6.8,18.5l31,67.4c4.9,10.6,10,16.1,19.7,16.1,10.3,0,14.8-6,19.7-16.1,0,0,27-58.9,27.3-59.5a3.94,3.94,0,0,1,3.9-2.5,4.35,4.35,0,0,1,4.3,4.4V87.2c0,8.9,4.9,16.2,14.4,16.2s14.6-7.3,14.6-16.2V40.1c0-9.1,6.5-15,15.4-15s14.8,6.1,14.8,15V87.2c0,8.9,4.9,16.2,14.4,16.2s14.6-7.3,14.6-16.2V40.1c0-9.1,6.5-15,15.4-15s14.8,6.1,14.8,15V87.2c0,8.9,4.9,16.2,14.4,16.2s14.6-7.3,14.6-16.2V33.6c0-19.7-15.8-33.5-34.9-33.5s-31,13.2-31,13.2C182.49,5,173.69,0,158.89,0c-15.6,0-29.3,13.2-29.3,13.2C123.29,5,112.49,0,103.49,0,89.69.1,78.69,6.2,72,21.5L52.19,68.2Zm627.1,5.5a12.1,12.1,0,0,1,24.2-.2v.1a12.1,12.1,0,1,1-24.2.1m21.9-.1a9.71,9.71,0,0,0-9.8-9.9,9.84,9.84,0,0,0-9.8,9.9v.1a9.77,9.77,0,0,0,9.8,9.9,9.92,9.92,0,0,0,9.8-10" style="fill: #fff"/>
        <path d="M661.29,8.9a1.32,1.32,0,0,1,1.3-1.3h4A4.4,4.4,0,0,1,670,8.8a3.47,3.47,0,0,1,1,2.7,3.67,3.67,0,0,1-2.3,3.6l1.8,2.2a1.78,1.78,0,0,1,.4,1,1.22,1.22,0,0,1-1.2,1.2,1.56,1.56,0,0,1-1.3-.7l-2.5-3.2h-2.1v2.5a1.3,1.3,0,1,1-2.6,0Zm5.2,4.4c1.3,0,1.9-.7,1.9-1.7s-.7-1.7-2-1.7h-2.6v3.4Z" style="fill: #fff"/>
      </g>
    </g>
  </g>
</svg>
